<svg width="22" height="23" viewBox="0 0 22 23" fill="none" xmlns="http://www.w3.org/2000/svg">
<path fill-rule="evenodd" clip-rule="evenodd" d="M18.9052 16.6438C19.9711 15.1302 20.5973 13.2847 20.5973 11.2933C20.5973 6.15401 16.431 1.98828 11.2923 1.98828C6.15365 1.98828 1.9873 6.15401 1.9873 11.2933C1.9873 16.4319 6.15365 20.5983 11.2923 20.5983C12.6175 20.5983 13.878 20.3206 15.019 19.8206L18.9052 20.5983V16.6438Z" fill="#F21C0A"/>
<path fill-rule="evenodd" clip-rule="evenodd" d="M18.9052 16.6438C19.9711 15.1302 20.5973 13.2847 20.5973 11.2933C20.5973 6.15401 16.431 1.98828 11.2923 1.98828C6.15365 1.98828 1.9873 6.15401 1.9873 11.2933C1.9873 16.4319 6.15365 20.5983 11.2923 20.5983C12.6175 20.5983 13.878 20.3206 15.019 19.8206L18.9052 20.5983V16.6438Z" stroke="#F21C0A" stroke-width="2.4"/>
<path fill-rule="evenodd" clip-rule="evenodd" d="M12.5214 6.04199L7.27051 12.0431H11.0213V16.5437L15.5219 9.79283H12.5214V6.04199Z" fill="white"/>
</svg>
