<svg width="15" height="15" viewBox="0 0 15 15" fill="none" xmlns="http://www.w3.org/2000/svg">
<path id="instagram" fill-rule="evenodd" clip-rule="evenodd" d="M14.0369 2.76125C13.8607 2.30722 13.6256 1.92262 13.241 1.53803C12.8565 1.15343 12.4719 0.918405 12.0178 0.742133C11.5798 0.571203 11.0724 0.453688 10.3406 0.421639L10.3281 0.421099C9.60073 0.389469 9.3578 0.378906 7.48817 0.378906C5.60794 0.378906 5.37291 0.384248 4.63577 0.421639C3.89863 0.453688 3.39652 0.571203 2.95851 0.742133C2.50448 0.918405 2.11989 1.15343 1.73529 1.53803C1.3507 1.92262 1.11567 2.30722 0.939399 2.76125C0.768469 3.19926 0.650954 3.70671 0.618904 4.4385L0.618364 4.45093C0.586735 5.17834 0.576172 5.42127 0.576172 7.29091C0.576172 9.17114 0.581513 9.40617 0.618904 10.1433C0.650954 10.8804 0.768469 11.3826 0.939399 11.8206C1.11567 12.2746 1.3507 12.6592 1.73529 13.0438C2.11989 13.4284 2.50448 13.6634 2.95851 13.8397C3.39652 14.0106 3.90397 14.1281 4.63577 14.1602L4.64822 14.1607C5.37562 14.1923 5.61856 14.2029 7.48817 14.2029C9.36841 14.2029 9.60344 14.1976 10.3406 14.1602C11.0777 14.1281 11.5798 14.0106 12.0178 13.8397C12.4719 13.6634 12.8565 13.4284 13.241 13.0438C13.6256 12.6592 13.8607 12.2746 14.0369 11.8206C14.2079 11.3826 14.3254 10.8751 14.3574 10.1433L14.358 10.1309C14.3896 9.40346 14.4002 9.16052 14.4002 7.29091C14.4002 5.41067 14.3948 5.17564 14.3574 4.4385C14.3254 3.70137 14.2079 3.19926 14.0369 2.76125ZM12.6331 9.84385C12.6038 10.4589 12.5013 10.7957 12.4135 11.0154C12.3012 11.3083 12.1596 11.523 11.94 11.7427C11.7203 11.9624 11.5104 12.099 11.2126 12.2162C10.9881 12.3041 10.6562 12.4066 10.0411 12.4359L10.0093 12.4372H10.0093C9.36573 12.4655 9.15003 12.4749 7.48817 12.4749C5.79922 12.4749 5.59909 12.47 4.93522 12.4359C4.32017 12.4066 3.98336 12.3041 3.7637 12.2162C3.47082 12.1039 3.25604 11.9624 3.03638 11.7427C2.81671 11.523 2.68004 11.3131 2.56288 11.0154C2.47502 10.7908 2.37251 10.4589 2.34322 9.84385L2.34207 9.81744C2.31368 9.16953 2.30417 8.9526 2.30417 7.29091C2.30417 5.60684 2.30905 5.40182 2.34322 4.73796C2.37251 4.12291 2.47502 3.78609 2.56288 3.56643C2.67515 3.27355 2.81671 3.05877 3.03638 2.83911C3.25604 2.61945 3.46593 2.48277 3.7637 2.36562C3.98824 2.27775 4.32017 2.17525 4.93522 2.14596L4.96164 2.1448C5.60955 2.11641 5.82648 2.10691 7.48817 2.10691C9.17224 2.10691 9.37726 2.11179 10.0411 2.14596C10.6562 2.17525 10.993 2.27775 11.2126 2.36562C11.5055 2.47789 11.7203 2.61945 11.94 2.83911C12.1596 3.05877 12.2963 3.26867 12.4135 3.56643C12.5013 3.79097 12.6038 4.12291 12.6331 4.73796L12.6343 4.76437C12.6627 5.41228 12.6722 5.62922 12.6722 7.29091C12.6722 8.95891 12.6626 9.17594 12.634 9.82498L12.6331 9.84385ZM10.9442 4.69891C11.4213 4.69891 11.8082 4.31208 11.8082 3.83491C11.8082 3.35773 11.4213 2.97091 10.9442 2.97091C10.467 2.97091 10.0802 3.35773 10.0802 3.83491C10.0802 4.31208 10.467 4.69891 10.9442 4.69891ZM7.48817 3.83491C5.58088 3.83491 4.03217 5.38361 4.03217 7.29091C4.03217 9.1982 5.58088 10.7469 7.48817 10.7469C9.39547 10.7469 10.9442 9.1982 10.9442 7.29091C10.9442 5.38361 9.39547 3.83491 7.48817 3.83491ZM5.76017 7.29091C5.76017 8.24691 6.53617 9.01891 7.48817 9.01891C8.44017 9.01891 9.21617 8.24291 9.21617 7.29091C9.21617 6.33491 8.44417 5.56291 7.48817 5.56291C6.53217 5.56291 5.76017 6.33891 5.76017 7.29091Z" fill="black"/>
</svg>
