<svg width="13" height="13" viewBox="0 0 13 13" fill="none" xmlns="http://www.w3.org/2000/svg">
<path id="linkedin" fill-rule="evenodd" clip-rule="evenodd" d="M3.18311 4.03241H0.694295V12.0479H3.18311V4.03241ZM3.38666 1.49341C3.38666 0.6965 2.73901 0.0478516 1.94333 0.0478516C1.14302 0.0478516 0.5 0.6965 0.5 1.49341C0.5 2.29032 1.14302 2.93897 1.94333 2.93897C2.73901 2.93897 3.38666 2.29032 3.38666 1.49341ZM7.12914 4.03241H4.75135V12.0479H7.23554V8.08183C7.23554 7.03936 7.42984 6.02469 8.72513 6.02469C10.0019 6.02469 10.0158 7.22005 10.0158 8.15133V12.0479H12.5V7.65557C12.5 5.4965 12.0328 3.83781 9.51619 3.83781C8.30416 3.83781 7.4946 4.50036 7.16153 5.13048H7.12914V4.03241Z" fill="black"/>
</svg>
