<svg width="22" height="22" viewBox="0 0 22 22" fill="none" xmlns="http://www.w3.org/2000/svg">
<path fill-rule="evenodd" clip-rule="evenodd" d="M3.41865 16.3956C2.3134 14.8262 1.66404 12.9126 1.66404 10.8477C1.66404 5.51871 5.98416 1.19922 11.3125 1.19922C16.6408 1.19922 20.9609 5.51871 20.9609 10.8477C20.9609 16.176 16.6408 20.4961 11.3125 20.4961C9.93843 20.4961 8.63141 20.2081 7.44826 19.6897L3.41865 20.4961V16.3956Z" stroke="#F21C0A" stroke-width="1.6"/>
<path fill-rule="evenodd" clip-rule="evenodd" d="M15.5792 7.35887C15.952 7.68985 16.0705 8.11142 16.0444 8.58351C16.0078 9.27858 15.7743 9.91965 15.4747 10.5346C14.8093 11.9056 13.8842 13.0779 12.7171 14.0587C11.8548 14.7834 10.9158 15.3792 9.85494 15.7763C9.3393 15.968 8.81495 16.1056 8.25925 16.0638C7.91781 16.0359 7.62689 15.9087 7.38475 15.6579C7.12345 15.3844 6.11133 14.2364 6.11133 14.2364C6.3256 14.0169 7.01892 13.2922 7.23319 13.0779C7.44398 12.8689 8.25576 12.1372 8.46655 11.9334L9.80791 13.2417L13.1996 9.843L11.8827 8.51383C12.3077 8.08704 13.7588 6.51225 14.1874 6.08893C14.1874 6.08893 15.3249 7.13066 15.5792 7.35887Z" fill="#F21C0A"/>
</svg>
