<svg width="15" height="12" viewBox="0 0 15 12" fill="none" xmlns="http://www.w3.org/2000/svg">
<path fill-rule="evenodd" clip-rule="evenodd" d="M7.4872 0.998535C7.4872 0.998535 11.8101 0.998535 12.8881 1.30807C13.4829 1.47839 13.9513 1.98023 14.1103 2.61753C14.3992 3.77256 14.3992 6.18254 14.3992 6.18254C14.3992 6.18254 14.3992 8.59243 14.1104 9.74754C13.9513 10.3848 13.4829 10.8867 12.8881 11.0571C11.8101 11.3665 7.4872 11.3665 7.4872 11.3665C7.4872 11.3665 3.16429 11.3665 2.08633 11.0571C1.49151 10.8867 1.02306 10.3848 0.864085 9.74754C0.575195 8.59243 0.575195 6.18254 0.575195 6.18254C0.575195 6.18254 0.575195 3.77256 0.864007 2.61753C1.02306 1.98023 1.49151 1.47839 2.08625 1.30807C3.16429 0.998535 7.4872 0.998535 7.4872 0.998535ZM6.07338 4.02254V8.19028L9.68647 6.10649L6.07338 4.02254Z" fill="black"/>
</svg>
